<svg width="86" height="44" viewBox="0 0 86 44" fill="none" xmlns="http://www.w3.org/2000/svg"><path d="M24.3816 11.5969L18.0031 26.1908H17.8923L17.2 20.1538L13.877 27.5385L14.117 29.3846H20.8462L28.8216 11.5969H24.3816Z" fill="#F05B22"/><path d="M16.6094 11.597L10.2309 26.1909H10.1202L9.42786 20.154H5.09863L6.33556 29.3847H13.0925L13.8771 27.6401L12.8709 20.154H17.2002L21.0494 11.5693L16.6094 11.597Z" fill="#F8A352"/><path d="M17.2001 20.1538H12.8708L13.877 27.6123L17.2001 20.2277V20.1538Z" fill="#C43F27"/><path d="M32.1448 20.1538L29.4587 26.1815H29.3572L28.8033 20.1538H26.4587L23.8279 26.1815H23.7264L23.071 20.1538H20.6433L21.8987 29.3846H24.4464L26.9848 23.7261L27.5387 29.3846H30.2248L34.6279 20.1538H32.1448Z" fill="white"/><path d="M40.2308 19.9786C39.7113 19.9639 39.1948 20.062 38.7168 20.2659C38.2387 20.4699 37.8105 20.7749 37.4616 21.1601L38.3201 16.4062H35.8278L33.5293 29.3847H36.0124L36.9354 24.0586C36.9909 23.4898 37.2579 22.9627 37.6836 22.5815C38.1093 22.2003 38.6625 21.9928 39.2339 22.0001C40.3508 22.0001 40.6462 22.6832 40.6462 23.4678C40.6327 23.8373 40.5863 24.2049 40.5078 24.5662L39.6493 29.3847H42.077L43.0001 24.5109C43.1156 23.9359 43.1835 23.3524 43.2031 22.7662C43.2248 22.3784 43.1612 21.9905 43.0168 21.6299C42.8725 21.2692 42.6508 20.9446 42.3675 20.6789C42.0841 20.4131 41.746 20.2127 41.3768 20.0917C41.0077 19.9707 40.6165 19.9321 40.2308 19.9786Z" fill="white"/><path d="M51.64 21.5384C51.3171 21.0177 50.8565 20.5965 50.3092 20.3212C49.7618 20.0459 49.149 19.9272 48.5385 19.9784C47.869 19.9598 47.2028 20.0797 46.5818 20.3306C45.9608 20.5814 45.3982 20.9578 44.9294 21.4361C44.4606 21.9145 44.0956 22.4845 43.8574 23.1104C43.6191 23.7364 43.5126 24.4048 43.5446 25.0738C43.5446 27.6861 45.1692 29.5323 47.7539 29.5323C48.2519 29.5669 48.7513 29.4887 49.2149 29.3032C49.6784 29.1178 50.0941 28.8301 50.4308 28.4615L50.2646 29.3384H52.48L52.8031 27.363L54.0769 20.1538H51.88L51.64 21.5384ZM48.3169 27.6123C47.9838 27.6252 47.6519 27.5658 47.3439 27.4382C47.036 27.3106 46.7593 27.1178 46.533 26.8731C46.3067 26.6283 46.1361 26.3375 46.0329 26.0205C45.9297 25.7035 45.8965 25.3679 45.9354 25.0369C45.9354 23.5046 46.7846 21.9076 48.7046 21.9076C49.039 21.8913 49.3729 21.9474 49.6835 22.0719C49.9942 22.1965 50.2744 22.3866 50.5048 22.6294C50.7353 22.8721 50.9107 23.1617 51.019 23.4784C51.1273 23.7952 51.1659 24.1315 51.1323 24.4646C51.1638 24.8582 51.115 25.254 50.9889 25.6282C50.8628 26.0024 50.662 26.3471 50.3988 26.6414C50.1356 26.9357 49.8153 27.1735 49.4575 27.3404C49.0996 27.5073 48.7116 27.5998 48.3169 27.6123Z" fill="white"/><path d="M57.114 26.5046L57.9078 22H60.2894L60.594 20.1539H58.2125L58.6925 17.5046H56.6617L55.794 20.1539H54.5017L54.1602 22H55.4617L54.714 26.2462C54.3909 28.0923 54.6586 29.5693 56.9663 29.5693C57.658 29.611 58.3493 29.481 58.9786 29.1908L59.2832 27.4369C58.8454 27.5881 58.3888 27.6782 57.9263 27.7046C57.1602 27.6677 56.9848 27.2154 57.114 26.5046Z" fill="white"/><path d="M69.9539 18.9168C70.2209 18.9168 70.4818 18.8375 70.7036 18.689C70.9254 18.5405 71.0982 18.3295 71.1999 18.0827C71.3016 17.8359 71.3278 17.5645 71.275 17.3028C71.2223 17.0411 71.093 16.801 70.9036 16.6129C70.7142 16.4248 70.4732 16.2972 70.2111 16.2462C69.9491 16.1953 69.6778 16.2233 69.4318 16.3267C69.1857 16.4301 68.9758 16.6043 68.8289 16.8271C68.6819 17.05 68.6044 17.3114 68.6062 17.5784C68.6087 17.9342 68.7517 18.2746 69.0042 18.5254C69.2567 18.7761 69.5981 18.9168 69.9539 18.9168Z" fill="white"/><path d="M67.5816 20.1538L67.2493 22H68.3478L67.0463 29.3846H69.4832L71.117 20.1538H67.5816Z" fill="white"/><path d="M80.9017 20.1538H78.0032L75.8802 22.9877L74.4678 20.1538H71.8278L74.2371 24.5938L70.1755 29.3846H73.0925L75.354 26.3938L76.8217 29.3846H79.4155L77.0248 24.7692L80.9017 20.1538Z" fill="white"/><path d="M65.5047 19.2307C65.6247 18.5569 65.7355 18.0584 66.6401 18.0584C66.8936 18.0627 67.1465 18.0843 67.397 18.123L67.6924 16.4615C67.2126 16.3398 66.7197 16.2778 66.2247 16.2769C63.9355 16.2769 63.317 17.9569 63.0493 19.3969L62.9109 20.2092H61.397L61.1478 22.0553H62.5693L61.277 29.5415C61.2638 29.8172 61.1489 30.0782 60.9546 30.2742C60.7603 30.4702 60.5003 30.5874 60.2247 30.603L59.8832 32.4492C62.6524 32.6061 63.3263 31.5261 63.6678 29.5876L65.0155 21.9999H66.7047L67.0001 20.1538H65.3386L65.5047 19.2307Z" fill="white"/></svg>